<svg width="105" height="129" viewBox="0 0 105 129" fill="none" xmlns="http://www.w3.org/2000/svg">
<path d="M83.6515 79.636C83.6515 79.636 82.2748 79.91 81.5304 80.3738C80.5228 81.0016 80.4165 81.869 79.5484 82.6788C78.2669 83.8743 75.8145 85.1684 75.8145 85.1684" stroke="#1E88E5"/>
<path d="M20.5635 79.6555C20.5635 79.6555 22.6535 80.7191 23.7559 81.7107C24.9772 82.8094 26.3355 85.0338 26.3355 85.0338" stroke="#1E88E5"/>
<path d="M71.1658 90.4035L60.1953 82.6606" stroke="#1E88E5"/>
<path d="M66.7333 96.0878L56.9648 89.2439" stroke="#1E88E5"/>
<path d="M61.2788 100.41L54.2578 95.4697" stroke="#1E88E5"/>
<path d="M77.4168 60.5346C77.4168 60.5346 70.1601 57.9397 65.3182 57.1445C61.1334 56.4572 58.0735 55.6819 54.4834 56.4132C50.8933 57.1445 41.5749 64.6155 40.8566 66.8494C40.1383 69.0834 41.0186 70.7742 40.718 73.3633C40.4585 75.5985 39.194 77.9506 39.7932 79.0141C40.3924 80.0775 42.3847 81.0339 44.246 80.8088C46.5789 80.5267 47.803 78.504 48.6159 76.7241C49.2765 75.2777 48.7423 73.1499 49.6968 72.2338C50.4652 71.4964 51.588 71.5074 52.841 71.1041C53.7983 70.7961 55.2141 70.0402 55.2141 70.0402" stroke="#1E88E5"/>
<path d="M27.6953 61.7977C27.6953 61.7977 30.4311 62.434 32.2148 62.4625C36.3295 62.5283 38.2185 59.8188 42.319 59.4711C45.2734 59.2206 48.3526 59.7353 48.3526 59.7353" stroke="#1E88E5"/>
<path d="M7.68061 50.1226L20.0096 55.9537C20.4795 56.1759 20.7008 56.7211 20.5187 57.208L20.4574 57.3718M1.19238 79.3554L9.54641 83.4164C10.0766 83.6741 10.7137 83.4196 10.9202 82.8674L11.5929 81.0691M20.4574 57.3718L27.1066 60.4691C27.5863 60.6925 27.8089 61.2511 27.6143 61.7433L19.2198 82.9718C19.0174 83.4836 18.4397 83.7356 17.9269 83.5359L11.5929 81.0691M20.4574 57.3718L11.5929 81.0691" stroke="#1E88E5"/>
<path d="M54.6949 70.0132L74.3674 83.6652C74.3674 83.6652 77.5549 85.9694 75.5462 88.8958C73.5374 91.8221 70.7577 90.1225 70.7577 90.1225C70.7577 90.1225 72.977 92.6322 70.7577 94.9366C68.5383 97.241 65.8219 95.4523 65.8219 95.4523C65.8219 95.4523 67.5834 97.346 65.3798 99.5778C63.1763 101.81 60.8411 100.093 60.8411 100.093C60.8411 100.093 61.8391 101.244 60.286 103.409C58.7329 105.573 55.1643 103.646 55.1643 103.646L49.541 100.609" stroke="#1E88E5"/>
<path d="M27.3231 84.1932C28.421 83.1854 30.1041 83.174 31.2156 84.1667C32.4067 85.2306 32.5133 87.0574 31.454 88.2527L29.0657 90.9474C27.9122 92.2488 25.9115 92.3403 24.6441 91.1494C23.3369 89.9212 23.349 87.841 24.6704 86.628L27.3231 84.1932Z" stroke="#1E88E5"/>
<path d="M44.6048 95.4141C45.3762 93.9275 47.1768 93.3056 48.7012 93.9992C50.1924 94.6777 50.9135 96.3868 50.3591 97.9284L49.0464 101.578C48.3567 103.496 46.1487 104.382 44.3242 103.475C42.6201 102.626 41.9419 100.546 42.8185 98.8568L44.6048 95.4141Z" stroke="#1E88E5"/>
<path d="M33.9845 85.5804C35.1994 84.2652 37.236 84.1436 38.5987 85.305C39.9876 86.4887 40.1676 88.5687 39.0026 89.9733L34.39 95.5349C33.0849 97.1085 30.7198 97.2472 29.2398 95.8367C27.8445 94.5071 27.7743 92.3039 29.082 90.8881L33.9845 85.5804Z" stroke="#1E88E5"/>
<path d="M39.292 89.7665C40.5228 88.2888 42.6827 88.0055 44.2529 89.116C45.7462 90.1721 46.2393 92.1635 45.4113 93.7944L42.5076 99.5135C41.3236 101.845 38.3819 102.641 36.1844 101.222C33.96 99.787 33.4928 96.729 35.1871 94.6948L39.292 89.7665Z" stroke="#1E88E5"/>
<path d="M99.957 48.6353L84.235 55.9317C83.7584 56.1529 83.5342 56.7052 83.7219 57.1959L93.7432 83.4062C93.9397 83.92 94.5143 84.1787 95.0292 83.9851L104.808 80.3074" stroke="#1E88E5"/>
<path d="M84.0205 57.8293L77.991 60.2411C77.4949 60.4396 77.2424 60.9929 77.4177 61.4976L84.7983 82.7531C84.9967 83.3242 85.6524 83.5901 86.1925 83.3183L92.5031 80.1432" stroke="#1E88E5"/>
<path d="M53 112.142L53 128.142" stroke="#1E88E5" stroke-linecap="round" stroke-dasharray="4 6"/>
<path d="M53 0.635254L53 40.6353" stroke="#1E88E5" stroke-linecap="round" stroke-dasharray="4 6"/>
</svg>
