<svg width="110" height="148" viewBox="0 0 110 148" fill="none" xmlns="http://www.w3.org/2000/svg">
<rect x="47.2695" y="86.5464" width="15" height="23" rx="7.5" stroke="#1E88E5"/>
<path d="M44.7547 115.632C46.1718 114.526 47.9178 113.926 49.7153 113.926C50.3746 113.926 51.0314 114.007 51.6711 114.167L52.2229 114.305C53.8949 114.723 55.6441 114.723 57.3162 114.305L57.868 114.167C58.5076 114.007 59.1645 113.926 59.8238 113.926C61.6213 113.926 63.3672 114.526 64.7844 115.632L70.5377 120.121C71.6306 120.974 72.2695 122.283 72.2695 123.669V130.228C72.2695 130.504 72.0457 130.728 71.7695 130.728H37.7695C37.4934 130.728 37.2695 130.504 37.2695 130.228V123.669C37.2695 122.283 37.9084 120.974 39.0013 120.121L44.7547 115.632Z" stroke="#1E88E5"/>
<path d="M59.0557 113.884L58.0511 108.947M50.4848 113.884L51.4149 108.947" stroke="#1E88E5"/>
<path d="M80.0566 89.7005C81.0066 88.9592 82.177 88.5566 83.382 88.5566H83.8121C84.7026 88.5566 85.569 88.8454 86.2814 89.3797C88.1002 90.7438 90.601 90.7438 92.4198 89.3797C93.1322 88.8454 93.9986 88.5566 94.889 88.5566H95.3192C96.5242 88.5566 97.6946 88.9592 98.6446 89.7005L105.119 94.752C106.212 95.6047 106.851 96.9136 106.851 98.2998V104.859C106.851 105.135 106.627 105.359 106.351 105.359H72.3506C72.0744 105.359 71.8506 105.135 71.8506 104.859V98.2998C71.8506 96.9136 72.4895 95.6047 73.5824 94.752L80.0566 89.7005Z" stroke="#1E88E5"/>
<path d="M79.8262 90.095C79.8262 90.095 81.1836 93.3511 83.0011 94.8941C85.2562 96.8088 89.4416 90.9215 89.4416 90.9215C89.4416 90.9215 93.612 96.8012 95.8666 94.894C97.6868 93.3542 99.3023 90.0951 99.3023 90.0951" stroke="#1E88E5"/>
<path d="M93.4873 88.5151L92.4827 83.5778M84.9164 88.5151L85.8465 83.5778" stroke="#1E88E5"/>
<rect x="81.8867" y="61.1772" width="15" height="23" rx="7.5" stroke="#1E88E5"/>
<path d="M91.3791 61.2357C90.8833 59.7485 88.0631 58.4028 85.1468 58.4028C81.5704 58.4028 78.0869 64.7184 76.7507 68.7994C75.1651 73.6424 73.7675 79.1056 76.7507 82.4304C79.1365 85.0894 84.5735 82.4304 84.5735 82.4304" stroke="#1E88E5"/>
<path d="M81.9678 70.362C81.9678 70.362 84.0875 67.1203 86.2168 66.8979C88.6785 66.6408 89.4436 69.4117 91.5113 70.3817C93.5789 71.3516 96.8057 71.8655 96.8057 71.8655" stroke="#1E88E5"/>
<path d="M33.7695 50.9656H71.7695C72.0457 50.9656 72.2695 51.1894 72.2695 51.4656V72.4604C72.2695 72.7365 72.0457 72.9604 71.7695 72.9604H47.4767C47.1635 72.9604 46.8582 73.0584 46.6035 73.2407L36.0199 80.8181C35.6243 81.1013 35.0983 80.7101 35.2557 80.2498L37.0685 74.9454C37.4011 73.9721 36.6777 72.9604 35.6491 72.9604H33.7695C33.4934 72.9604 33.2695 72.7365 33.2695 72.4604V51.4656C33.2695 51.1894 33.4934 50.9656 33.7695 50.9656Z" stroke="#1E88E5" stroke-linecap="round"/>
<path d="M38.458 56.0691H45.3292" stroke="#1E88E5" stroke-linecap="round"/>
<path d="M38.458 60.0183H49.6835" stroke="#1E88E5" stroke-linecap="round"/>
<path d="M38.458 63.8748H41.8936" stroke="#1E88E5" stroke-linecap="round"/>
<path d="M57.9346 63.8748H67.1437" stroke="#1E88E5" stroke-linecap="round"/>
<path d="M38.458 67.9917H53.2893" stroke="#1E88E5" stroke-linecap="round"/>
<path d="M47.6074 56.069H67.1436" stroke="#1E88E5" stroke-linecap="round"/>
<path d="M59.8408 60.0183L67.1424 60.0183" stroke="#1E88E5" stroke-linecap="round"/>
<path d="M51.8457 60.0183L58.6229 60.0183" stroke="#1E88E5" stroke-linecap="round"/>
<path d="M44.168 63.8749L55.9564 63.8749" stroke="#1E88E5" stroke-linecap="round"/>
<path d="M55.9561 67.9917L67.1437 67.9917" stroke="#1E88E5" stroke-linecap="round"/>
<rect x="13.5264" y="61.1772" width="15" height="23" rx="7.5" stroke="#1E88E5"/>
<path d="M11.0115 90.2629C12.4287 89.1572 14.1746 88.5566 15.9721 88.5566C16.6314 88.5566 17.2883 88.6375 17.9279 88.7974L18.4797 88.9354C20.1518 89.3534 21.901 89.3534 23.573 88.9354L24.1248 88.7974C24.7645 88.6375 25.4213 88.5566 26.0806 88.5566C27.8781 88.5566 29.6241 89.1572 31.0412 90.2629L36.7946 94.752C37.8875 95.6047 38.5264 96.9136 38.5264 98.2998V104.859C38.5264 105.135 38.3025 105.359 38.0264 105.359H4.02637C3.75023 105.359 3.52637 105.135 3.52637 104.859V98.2998C3.52637 96.9136 4.16526 95.6047 5.25817 94.752L11.0115 90.2629Z" stroke="#1E88E5"/>
<path d="M15.2168 88.5493L16.6893 96.7733L17.1618 105.21M26.538 88.5493L25.1802 96.7733L24.8224 105.21" stroke="#1E88E5"/>
<path d="M25.1631 88.5151L24.1585 83.5778M16.5922 88.5151L17.5223 83.5778" stroke="#1E88E5"/>
<path d="M13.5879 70.362C13.5879 70.362 15.7076 67.1203 17.8369 66.8979C20.2986 66.6408 21.0638 69.4117 23.1314 70.3817C25.199 71.3516 28.4258 71.8655 28.4258 71.8655" stroke="#1E88E5"/>
<rect x="19.7285" y="89.3381" width="2.65007" height="3.02226" rx="0.5" stroke="#1E88E5"/>
<rect x="19.7285" y="92.3877" width="2.65007" height="12.9715" rx="0.5" stroke="#1E88E5"/>
<path d="M0.895508 105.356L47.9478 105.356M109.105 105.356L61.6532 105.356" stroke="#1E88E5" stroke-linecap="round"/>
<path d="M0.895508 122.327L37.2619 122.327M109.105 122.327L72.1072 122.327" stroke="#1E88E5" stroke-linecap="round"/>
<path d="M55 131.228L55 147.228" stroke="#1E88E5" stroke-linecap="round" stroke-dasharray="4 6"/>
<path d="M55 1L55 41" stroke="#1E88E5" stroke-linecap="round" stroke-dasharray="4 6"/>
</svg>
