<svg width="110" height="146" viewBox="0 0 110 146" fill="none" xmlns="http://www.w3.org/2000/svg">
<rect x="84.1465" y="84.3181" width="15" height="23" rx="7.5" stroke="#1E88E5"/>
<path d="M81.2422 113.708C82.9117 112.405 84.9686 111.698 87.0862 111.698H96.2068C98.3244 111.698 100.381 112.405 102.051 113.708L107.415 117.893C108.508 118.746 109.146 120.054 109.146 121.441V128C109.146 128.276 108.923 128.5 108.646 128.5H74.6465C74.3703 128.5 74.1465 128.276 74.1465 128V121.441C74.1465 120.054 74.7854 118.746 75.8783 117.893L81.2422 113.708Z" stroke="#1E88E5"/>
<path d="M9.05952 89.9407C10.0095 89.1995 11.18 88.7969 12.3849 88.7969H12.8151C13.7055 88.7969 14.5719 89.0857 15.2843 89.62C17.1031 90.9841 19.6039 90.9841 21.4227 89.62C22.1351 89.0857 23.0015 88.7969 23.892 88.7969H24.3221C25.5271 88.7969 26.6975 89.1995 27.6475 89.9407L34.1217 94.9922C35.2146 95.8449 35.8535 97.1538 35.8535 98.54V105.099C35.8535 105.376 35.6297 105.599 35.3535 105.599H1.35352C1.07737 105.599 0.853516 105.376 0.853516 105.099V98.54C0.853516 97.1538 1.49241 95.8449 2.58532 94.9922L9.05952 89.9407Z" stroke="#1E88E5"/>
<path d="M8.8291 90.3353C8.8291 90.3353 10.1865 93.5913 12.004 95.1343C14.2591 97.049 18.4445 91.1617 18.4445 91.1617C18.4445 91.1617 22.6149 97.0414 24.8695 95.1342C26.6897 93.5944 28.3052 90.3354 28.3052 90.3354" stroke="#1E88E5"/>
<path d="M87.2119 111.69L90.7384 119.084C91.1071 119.857 92.2134 119.839 92.557 119.055L95.7828 111.69" stroke="#1E88E5"/>
<path d="M95.7832 111.656L94.7786 106.719M87.2123 111.656L88.1424 106.719" stroke="#1E88E5"/>
<path d="M22.4902 88.7554L21.4857 83.818M13.9193 88.7554L14.8494 83.818" stroke="#1E88E5"/>
<path d="M84.208 93.5028C84.208 93.5028 86.3277 90.2611 88.457 90.0387C90.9187 89.7816 91.6839 92.5525 93.7515 93.5225C95.8191 94.4925 99.0459 95.0063 99.0459 95.0063" stroke="#1E88E5"/>
<rect x="10.8896" y="61.4175" width="15" height="23" rx="7.5" stroke="#1E88E5"/>
<path d="M20.382 61.476C19.8863 59.9887 17.0661 58.6431 14.1498 58.6431C10.5733 58.6431 7.08978 64.9586 5.75363 69.0396C4.16801 73.8826 2.77046 79.3458 5.75363 82.6706C8.13944 85.3296 13.5764 82.6706 13.5764 82.6706" stroke="#1E88E5"/>
<path d="M10.9707 70.6022C10.9707 70.6022 13.0904 67.3605 15.2197 67.1381C17.6814 66.881 18.4466 69.6519 20.5142 70.6219C22.5818 71.5919 25.8086 72.1057 25.8086 72.1057" stroke="#1E88E5"/>
<path d="M31.165 50.0903C31.165 49.8142 31.3889 49.5903 31.665 49.5903H69.665C69.9412 49.5903 70.165 49.8142 70.165 50.0903V71.0851C70.165 71.3613 69.9412 71.5851 69.665 71.5851H45.3722C45.059 71.5851 44.7537 71.6831 44.499 71.8655L33.9154 79.4428C33.5198 79.726 32.9938 79.3349 33.1512 78.8746L34.964 73.5702C35.2966 72.5969 34.5732 71.5851 33.5446 71.5851H31.665C31.3889 71.5851 31.165 71.3613 31.165 71.0851V50.0903Z" stroke="#1E88E5"/>
<path d="M36.3535 54.6938H43.2247" stroke="#1E88E5" stroke-linecap="round"/>
<path d="M36.3535 58.6431H47.579" stroke="#1E88E5" stroke-linecap="round"/>
<path d="M36.3535 62.4995H39.7891" stroke="#1E88E5" stroke-linecap="round"/>
<path d="M55.8301 62.4995H65.0392" stroke="#1E88E5" stroke-linecap="round"/>
<path d="M36.3535 66.6165H51.1849" stroke="#1E88E5" stroke-linecap="round"/>
<path d="M45.5029 54.6937H65.0391" stroke="#1E88E5" stroke-linecap="round"/>
<path d="M57.7363 58.6431L65.0379 58.6431" stroke="#1E88E5" stroke-linecap="round"/>
<path d="M49.7412 58.6431L56.5184 58.6431" stroke="#1E88E5" stroke-linecap="round"/>
<path d="M42.0635 62.4996L53.8519 62.4996" stroke="#1E88E5" stroke-linecap="round"/>
<path d="M53.8516 66.6165L65.0392 66.6165" stroke="#1E88E5" stroke-linecap="round"/>
<path d="M79.2588 78.1274C79.2588 77.8513 79.0349 77.6274 78.7588 77.6274H40.7588C40.4826 77.6274 40.2588 77.8513 40.2588 78.1274V99.1251C40.2588 99.4012 40.4826 99.6251 40.7588 99.6251H65.0516C65.3648 99.6251 65.6702 99.7231 65.9248 99.9055L76.5085 107.484C76.904 107.767 77.43 107.376 77.2727 106.916L75.4598 101.61C75.1272 100.637 75.8506 99.6251 76.8792 99.6251H78.7588C79.0349 99.6251 79.2588 99.4012 79.2588 99.1251V78.1274Z" stroke="#1E88E5"/>
<path d="M74.5762 82.3049H67.5458" stroke="#1E88E5" stroke-linecap="round"/>
<path d="M74.5762 86.1772H63.0906" stroke="#1E88E5" stroke-linecap="round"/>
<path d="M74.5762 89.9417H71.061" stroke="#1E88E5" stroke-linecap="round"/>
<path d="M54.1113 89.9417H44.3658" stroke="#1E88E5" stroke-linecap="round"/>
<path d="M74.5762 93.8661H59.4012" stroke="#1E88E5" stroke-linecap="round"/>
<path d="M65.0391 82.3049H44.3651" stroke="#1E88E5" stroke-linecap="round"/>
<path d="M52.0918 86.1772L44.3649 86.1772" stroke="#1E88E5" stroke-linecap="round"/>
<path d="M60.835 86.1772L54.1115 86.1772" stroke="#1E88E5" stroke-linecap="round"/>
<path d="M68.4521 89.9417L56.7571 89.9417" stroke="#1E88E5" stroke-linecap="round"/>
<path d="M53.207 93.8661L44.3661 93.8661" stroke="#1E88E5" stroke-linecap="round"/>
<path d="M55 1L55 41" stroke="#1E88E5" stroke-linecap="round" stroke-dasharray="4 6"/>
<path d="M55 129L55 145" stroke="#1E88E5" stroke-linecap="round" stroke-dasharray="4 6"/>
</svg>
