<svg width="89" height="147" viewBox="0 0 89 147" fill="none" xmlns="http://www.w3.org/2000/svg">
<path d="M23.999 110.048V128.032C23.999 128.584 24.4467 129.032 24.999 129.032H86.999C87.5513 129.032 87.999 128.584 87.999 128.032V50C87.999 49.4477 87.5513 49 86.999 49H36.999C36.4467 49 35.999 49.4477 35.999 50V60.097C35.999 60.6493 35.5513 61.097 34.999 61.097H24.999C24.4467 61.097 23.999 61.5447 23.999 62.097V86.0807" stroke="#1E88E5" stroke-linecap="round"/>
<path d="M36.44 49.1682L24.3643 61.327" stroke="#1E88E5"/>
<rect x="27.7387" y="84.324" width="7" height="31.9316" transform="rotate(30 27.7387 84.324)" stroke="#1E88E5"/>
<path d="M18.9955 92.4444C19.1336 92.2053 19.0516 91.8995 18.8125 91.7614C18.5734 91.6233 18.2676 91.7053 18.1295 91.9444L18.9955 92.4444ZM12.4249 111.848L11.116 111.092L10.616 111.958L11.9249 112.714L12.4249 111.848ZM10.201 107.677L18.9955 92.4444L18.1295 91.9444L9.33493 107.177L10.201 107.677ZM11.116 111.092C9.92028 110.402 9.5106 108.873 10.201 107.677L9.33493 107.177C8.36843 108.851 8.94199 110.992 10.616 111.958L11.116 111.092Z" fill="#1E88E5"/>
<path d="M11.7387 112.037L17.8009 115.537L11.5349 126.39C10.5684 128.064 8.4278 128.637 6.75377 127.671C5.07975 126.704 4.50619 124.564 5.47269 122.89L11.7387 112.037Z" stroke="#1E88E5"/>
<path d="M29.297 81.6196C31.0889 79.1995 34.9327 75.8892 37.281 73.9659C37.6153 73.692 38.0711 73.9552 38.0011 74.3816C37.5096 77.377 36.5647 82.361 35.3648 85.1228C34.9333 86.1159 34.4838 86.894 34.144 87.4216C34.027 87.6034 33.923 87.7552 33.8375 87.8756L27.6767 84.3187C27.7382 84.1844 27.8177 84.0185 27.9166 83.8262C28.2036 83.2681 28.6527 82.4898 29.297 81.6196Z" stroke="#1E88E5"/>
<rect x="57.499" y="56.5647" width="23" height="7" rx="0.5" stroke="#1E88E5"/>
<path d="M80.4326 67.5085H57.6934" stroke="#1E88E5" stroke-linecap="round"/>
<path d="M69.6113 80.5806H46.8721" stroke="#1E88E5" stroke-linecap="round"/>
<path d="M80.4331 71.5986L69.0635 71.5986" stroke="#1E88E5" stroke-linecap="round"/>
<path d="M80.4328 86.6306L38.6611 86.6306" stroke="#1E88E5" stroke-linecap="round"/>
<path d="M80.4327 98.7305L33.373 98.7305" stroke="#1E88E5" stroke-linecap="round"/>
<path d="M80.4325 90.7207L36.4336 90.7207" stroke="#1E88E5" stroke-linecap="round"/>
<path d="M80.4328 102.821L33.373 102.821" stroke="#1E88E5" stroke-linecap="round"/>
<path d="M80.4323 94.7256L34.4834 94.7256" stroke="#1E88E5" stroke-linecap="round"/>
<path d="M80.4328 106.825L33.373 106.825" stroke="#1E88E5" stroke-linecap="round"/>
<path d="M39.7158 123.37C41.1906 120.971 42.9124 118.962 45.3323 117.466C45.962 117.077 47.2972 116.344 48.1105 116.568C48.6369 116.713 46.8108 118.86 46.6296 119.075C46.1835 119.605 45.7202 120.23 45.5039 120.895C45.0185 122.389 48.1512 120.608 48.3501 120.476C49.5757 119.662 50.4796 118.554 51.6034 117.646C51.8391 117.455 51.3288 118.188 51.2241 118.472C51.1099 118.783 50.8659 119.343 50.9727 119.698C51.1769 120.376 53.8886 118.597 53.9705 118.548C55.1697 117.837 56.307 117.053 57.3914 116.177C57.5383 116.058 57.6775 115.931 57.8226 115.81C58.0272 115.639 57.9812 115.668 57.8824 115.842C57.742 116.089 57.5857 116.314 57.5751 116.616C57.5445 117.486 58.6301 117.398 59.1957 117.279C61.5814 116.774 64.5463 114.952 65.407 112.552C65.4337 112.478 65.7914 111.006 65.2752 111.431C63.6724 112.751 62.0874 114.118 61.0359 115.941C60.5836 116.726 60.2284 117.49 60.1378 118.396C60.0211 119.563 60.8573 119.74 61.8782 119.618C64.9641 119.25 68.0801 118.015 70.9795 116.995C73.8061 116.001 76.5833 114.891 79.3782 113.814" stroke="#1E88E5" stroke-linecap="round" stroke-linejoin="round"/>
<path d="M44 130.104L44 146.104" stroke="#1E88E5" stroke-linecap="round" stroke-dasharray="4 6"/>
<path d="M44 1L44 41" stroke="#1E88E5" stroke-linecap="round" stroke-dasharray="4 6"/>
</svg>
