<svg width="50" height="51" viewBox="0 0 50 51" fill="none" xmlns="http://www.w3.org/2000/svg">
<path d="M7.60404 14.6679C7.56427 14.6282 7.53149 14.582 7.50709 14.5313L4.40902 8.09683C4.20383 7.67067 4.65027 7.22423 5.07643 7.42942L11.5109 10.5275C11.5616 10.5519 11.6078 10.5847 11.6475 10.6244L39.3238 38.3007C39.5191 38.496 39.5191 38.8126 39.3238 39.0078L35.9874 42.3442C35.7922 42.5395 35.4756 42.5395 35.2803 42.3442L7.60404 14.6679Z" stroke="#1E88E5" stroke-linejoin="round"/>
<path d="M9.88672 12.7273L13.3602 16.1382M30.7275 33.1931L23.7806 26.3711L20.3071 22.9602" stroke="#1E88E5" stroke-linecap="round"/>
<path d="M5.62109 10.5624L7.54062 8.64291" stroke="#1E88E5"/>
<path d="M31.5508 2.19276L42.1028 12.7448C45.1361 15.7781 45.2504 20.6251 42.4456 23.795L26.197 7.5465L31.5508 2.19276Z" stroke="#1E88E5"/>
<path d="M31.7578 12.7791L25.4198 19.1248L22.8743 21.6627M36.5084 17.5297L30.1704 23.8754L27.5774 26.3658M23.6157 30.4301L11.2133 42.8325C10.8228 43.223 10.1897 43.223 9.79914 42.8325L6.46275 39.4961C6.07223 39.1056 6.07223 38.4724 6.46275 38.0819L18.8651 25.6796" stroke="#1E88E5" stroke-linejoin="round"/>
<path d="M40.3768 11.415L41.7057 10.0862C42.0962 9.69564 42.0962 9.06248 41.7057 8.67195L39.7266 6.69289C39.3361 6.30236 38.7029 6.30236 38.3124 6.69289L36.9836 8.02175" stroke="#1E88E5" stroke-linejoin="round"/>
</svg>
