<svg width="48" height="51" viewBox="0 0 48 51" fill="none" xmlns="http://www.w3.org/2000/svg">
<path d="M41.1778 44.7059C41.1778 45.7974 39.3631 46.7153 36.472 46.9812V50C32.5735 50 27.6484 48.3583 27.6484 47.0588" stroke="#1E88E5"/>
<path d="M28.2367 15.2941V2.35291M41.1778 2.35291V19.8529M41.1778 44.7058V22.0588M27.6484 47.0588V36.4706" stroke="#1E88E5"/>
<path d="M14.707 45.2941V25.2941L24.707 21.7647" stroke="#1E88E5" stroke-linecap="round"/>
<path d="M23.3749 14.1054C23.4753 14.0727 23.5835 14.0727 23.684 14.1054L43.978 20.701C44.4386 20.8507 44.4386 21.5023 43.978 21.652L23.684 28.2476C23.5835 28.2802 23.4753 28.2802 23.3749 28.2476L3.08081 21.652C2.62019 21.5023 2.6202 20.8507 3.0808 20.701L23.3749 14.1054Z" stroke="#1E88E5" stroke-linejoin="round"/>
<path d="M10 24.1176V32.3529C10 32.3529 15.5882 36.4706 23.5294 36.4706C31.4706 36.4706 37.0588 32.3529 37.0588 32.3529V24.1176" stroke="#1E88E5"/>
<path d="M14.1163 39.4117H15.2927L16.7468 45.228C16.9046 45.8592 16.4272 46.4706 15.7767 46.4706H14.7045H13.6323C12.9818 46.4706 12.5044 45.8592 12.6622 45.228L14.1163 39.4117Z" fill="#1E88E5"/>
<path d="M36.3837 4.70588V4.20588H35.8837C33.9514 4.20588 31.9359 4.05942 30.4181 3.70432C29.6552 3.52585 29.056 3.30309 28.6591 3.04562C28.2635 2.78896 28.1484 2.5553 28.1484 2.35294C28.1484 2.08456 28.26 1.84849 28.5268 1.62194C28.8077 1.38342 29.2485 1.16954 29.8542 0.995201C31.0633 0.64721 32.7719 0.5 34.7073 0.5C36.6116 0.5 38.3197 0.788035 39.5354 1.2079C40.1458 1.41874 40.6074 1.65437 40.9058 1.88476C41.2189 2.12644 41.2661 2.29145 41.2661 2.35294C41.2661 3.6199 40.6749 4.43067 39.7167 4.98371C38.8445 5.4871 37.6729 5.76953 36.3837 5.91809V4.70588Z" stroke="#1E88E5"/>
<path d="M36.4688 4.11761V12.3529" stroke="#1E88E5" stroke-linecap="round"/>
<path d="M36.4688 48.8235V40" stroke="#1E88E5" stroke-linecap="round"/>
<path d="M32.3516 2.35291H36.4692" stroke="#1E88E5" stroke-linecap="round"/>
</svg>
