<svg width="44" height="46" viewBox="0 0 44 46" fill="none" xmlns="http://www.w3.org/2000/svg">
<path d="M33.144 15.0002H40.787C41.8916 15.0002 42.787 15.8956 42.787 17.0002V38.7148C42.787 39.8193 41.8915 40.7148 40.787 40.7148H29.9297" stroke="#1E88E5" stroke-linejoin="round"/>
<path d="M23.4988 11.7858L34.8231 0.92322C35.2158 0.546516 35.8376 0.552985 36.2224 0.937777L39.3357 4.05108C39.7237 4.43904 39.7266 5.06713 39.3423 5.45868L32.6061 12.3216" stroke="#1E88E5" stroke-linejoin="round"/>
<path d="M12.2501 22.4997H21.8931M9.95032 22.4997H5C2.79086 22.4997 1 20.7089 1 18.4997V11.7853H33.1432V18.4998C33.1432 20.7089 31.3524 22.4997 29.1432 22.4997H24.036" stroke="#1E88E5"/>
<path d="M4.21484 22.4997V41C4.21484 43.2091 6.0057 45 8.21484 45H25.9294C28.1386 45 29.9294 43.2091 29.9294 41V22.4997" stroke="#1E88E5"/>
<path d="M22.4293 11.7853V9.49957C22.4293 8.395 21.5338 7.49957 20.4293 7.49957H13.7148C12.6103 7.49957 11.7148 8.395 11.7148 9.49957V11.7853" stroke="#1E88E5"/>
<path d="M10.0703 34.7856H24.0705V37.6428C24.0705 38.4712 23.3989 39.1428 22.5705 39.1428H11.5703C10.7419 39.1428 10.0703 38.4712 10.0703 37.6428V34.7856Z" stroke="#1E88E5"/>
<rect x="10.0703" y="19.7854" width="2.21432" height="9.71441" stroke="#1E88E5"/>
<rect x="21.8555" y="19.7854" width="2.21432" height="9.71441" stroke="#1E88E5"/>
</svg>
