<svg width="47" height="57" viewBox="0 0 47 57" fill="none" xmlns="http://www.w3.org/2000/svg">
<circle cx="18.6654" cy="5.83333" r="5.33333" stroke="#1E88E5"/>
<path d="M9.14339 16.1C9.48919 14.4862 10.9153 13.3333 12.5657 13.3333H15.9935L16.3442 14.21C17.1823 16.3053 20.1484 16.3053 20.9866 14.21L21.3372 13.3333H24.765C26.4154 13.3333 27.8415 14.4862 28.1873 16.1L30.8802 28.6666H6.45052L9.14339 16.1Z" stroke="#1E88E5"/>
<path d="M0.5 28.5H36.8333V32.1667C36.8333 34.0997 35.2663 35.6667 33.3333 35.6667H4C2.067 35.6667 0.5 34.0997 0.5 32.1667V28.5Z" stroke="#1E88E5"/>
<path d="M14 29.1667V24.5" stroke="#1E88E5"/>
<path d="M9.33203 35.5833L12.832 56H24.4987L27.9987 35.5833" stroke="#1E88E5"/>
<path d="M30.832 4C30.832 2.06701 32.399 0.5 34.332 0.5H42.6654C44.5984 0.5 46.1654 2.067 46.1654 4V7.66666C46.1654 9.59966 44.5984 11.1667 42.6654 11.1667H30.832V4Z" stroke="#1E88E5"/>
<circle cx="34.9987" cy="5.83335" r="1.16667" fill="#1E88E5"/>
<circle cx="38.4987" cy="5.83335" r="1.16667" fill="#1E88E5"/>
<circle cx="41.9987" cy="5.83335" r="1.16667" fill="#1E88E5"/>
<rect x="12.168" y="19.1667" width="3.66667" height="6" rx="1.83333" stroke="#1E88E5"/>
</svg>
