<svg width="36" height="49" viewBox="0 0 36 49" fill="none" xmlns="http://www.w3.org/2000/svg">
<circle cx="12.2157" cy="20.8542" r="4.0243" stroke="#0078D2"/>
<path d="M21.3724 27.6407C21.3724 29.5147 19.8532 31.0339 17.9792 31.0339C16.1051 31.0339 14.5859 29.5147 14.5859 27.6407" stroke="#0078D2"/>
<path d="M21.3724 33.296C21.3724 35.17 19.8532 36.6892 17.9792 36.6892C16.1051 36.6892 14.5859 35.17 14.5859 33.296" stroke="#0078D2"/>
<circle cx="23.7352" cy="20.8542" r="4.0243" stroke="#0078D2"/>
<path d="M16.4375 21.4197H19.7753" stroke="#0078D2"/>
<path d="M30.832 18.5085H33.3563C34.4609 18.5085 35.3563 19.4039 35.3563 20.5085V22.426C35.3563 24.6351 33.5655 26.426 31.3563 26.426H30.832" stroke="#0078D2"/>
<path d="M5.4907 18.5085H3.01172C1.90715 18.5085 1.01172 19.4039 1.01172 20.5085V22.426C1.01172 24.6351 2.80258 26.426 5.01172 26.426H5.4907" stroke="#0078D2"/>
<path d="M11.7561 29.9028V29.9028C8.32035 29.9028 5.53516 32.688 5.53516 36.1237V44C5.53516 46.2091 7.32601 48 9.53515 48H26.4188C28.6279 48 30.4188 46.2091 30.4188 44V36.1237C30.4188 32.688 27.6336 29.9028 24.1979 29.9028V29.9028" stroke="#0078D2"/>
<path d="M20.8094 28.7717H21.5366C23.3214 28.7717 24.7682 30.2186 24.7682 32.0034V32.0034C24.7682 32.7173 24.1895 33.296 23.4756 33.296H12.488C11.7741 33.296 11.1953 32.7173 11.1953 32.0034V32.0034C11.1953 30.2186 12.6422 28.7717 14.427 28.7717H15.1541" stroke="#0078D2"/>
<path d="M22.7509 2.29428L27.0278 2.29428V2.29428C31.0038 2.29428 33.8814 6.08954 32.8082 9.91791L30.8323 16.9661C30.8323 16.9661 28.7758 15.4237 27.0278 13.5022C24.5833 10.8151 22.7509 7.95287 22.7509 7.95287" stroke="#0078D2"/>
<path d="M9.86073 0.5L19.6364 0.5C21.5694 0.5 23.1364 2.067 23.1364 4V6.85527C23.1364 7.47018 22.9768 8.02932 22.6241 8.44468C21.5861 9.66726 19.011 12.0803 13.8752 13.6605C12.689 14.0256 10.8591 14.5629 9.11709 15.0085C8.24583 15.2314 7.40115 15.4301 6.67229 15.5727C5.93408 15.7172 5.34595 15.7978 4.97369 15.7978H3.49794L2.45232 9.16852C1.73436 4.61667 5.25261 0.5 9.86073 0.5Z" stroke="#0078D2"/>
<path d="M4.97266 15.2695V28.246C4.97266 29.3068 5.39408 30.3242 6.14423 31.0744L7.23481 32.165" stroke="#0078D2"/>
<path d="M30.9844 16.3299V28.2459C30.9844 29.3068 30.5629 30.3242 29.8128 31.0744L28.7222 32.1649" stroke="#0078D2"/>
</svg>
