<svg width="42" height="42" viewBox="0 0 42 42" fill="none" xmlns="http://www.w3.org/2000/svg">
<path d="M16.9688 8.06244L4.71875 8.06244C2.50961 8.06244 0.71875 9.8533 0.71875 12.0624L0.71875 36.5624C0.71875 38.7716 2.50961 40.5624 4.71875 40.5624H29.2187C31.4279 40.5624 33.2188 38.7716 33.2188 36.5624V24.3124" stroke="#1E88E5" stroke-linejoin="round"/>
<path d="M16.7188 8.06244L17.2188 8.06244C17.2188 7.7863 16.9949 7.56244 16.7188 7.56244V8.06244ZM16.7188 13.3312H16.2188C16.2188 13.5013 16.3052 13.6597 16.4482 13.7517C16.5912 13.8437 16.7712 13.8567 16.926 13.7862L16.7188 13.3312ZM16.7188 18.7943L16.926 18.3393C16.7712 18.2688 16.5912 18.2818 16.4482 18.3738C16.3052 18.4659 16.2188 18.6243 16.2188 18.7943H16.7188ZM16.7188 24.0624V24.5624C16.9949 24.5624 17.2188 24.3386 17.2188 24.0624H16.7188ZM11.548 24.0624V23.5624C11.3857 23.5624 11.2335 23.6412 11.1398 23.7737C11.0461 23.9063 11.0225 24.076 11.0766 24.2291L11.548 24.0624ZM5.88946 24.0624L6.36088 24.2291C6.41496 24.076 6.39141 23.9063 6.29769 23.7737C6.20398 23.6412 6.05176 23.5624 5.88946 23.5624V24.0624ZM0.71875 24.0624H0.21875C0.21875 24.3386 0.442608 24.5624 0.71875 24.5624L0.71875 24.0624ZM4.71875 7.56244C2.23347 7.56244 0.21875 9.57716 0.21875 12.0624H1.21875C1.21875 10.1294 2.78575 8.56244 4.71875 8.56244V7.56244ZM16.7188 7.56244L4.71875 7.56244V8.56244H16.7188V7.56244ZM17.2188 13.3312V8.06244L16.2188 8.06244V13.3312H17.2188ZM16.926 13.7862C17.2407 13.6429 17.5908 13.5628 17.9609 13.5628V12.5628C17.445 12.5628 16.9538 12.6747 16.5115 12.8762L16.926 13.7862ZM17.9609 13.5628C19.3417 13.5628 20.4609 14.6821 20.4609 16.0628H21.4609C21.4609 14.1298 19.8939 12.5628 17.9609 12.5628V13.5628ZM20.4609 16.0628C20.4609 17.4435 19.3417 18.5628 17.9609 18.5628V19.5628C19.8939 19.5628 21.4609 17.9958 21.4609 16.0628H20.4609ZM17.9609 18.5628C17.5908 18.5628 17.2407 18.4827 16.926 18.3393L16.5115 19.2493C16.9538 19.4508 17.445 19.5628 17.9609 19.5628V18.5628ZM17.2188 24.0624V18.7943H16.2188V24.0624H17.2188ZM11.548 24.5624H16.7188V23.5624H11.548L11.548 24.5624ZM12.2187 25.0624C12.2187 24.6543 12.1487 24.2614 12.0195 23.8958L11.0766 24.2291C11.1685 24.4891 11.2187 24.7693 11.2187 25.0624H12.2187ZM8.71875 28.5624C10.6517 28.5624 12.2187 26.9954 12.2187 25.0624H11.2187C11.2187 26.4432 10.0995 27.5624 8.71875 27.5624V28.5624ZM5.21875 25.0624C5.21875 26.9954 6.78575 28.5624 8.71875 28.5624V27.5624C7.33804 27.5624 6.21875 26.4432 6.21875 25.0624H5.21875ZM5.41804 23.8958C5.28883 24.2614 5.21875 24.6543 5.21875 25.0624H6.21875C6.21875 24.7693 6.26898 24.4891 6.36088 24.2291L5.41804 23.8958ZM0.71875 24.5624H5.88946V23.5624H0.71875V24.5624ZM0.21875 12.0624L0.21875 24.0624H1.21875L1.21875 12.0624H0.21875Z" fill="#1E88E5"/>
<path d="M41.4102 5.26172L41.9102 5.26172L41.4102 5.26172ZM37.4102 1.26172L37.4102 0.761718L37.4102 1.26172ZM41.4102 17.2617L41.4102 17.7617C41.6863 17.7617 41.9102 17.5379 41.9102 17.2617L41.4102 17.2617ZM36.2398 17.2617L36.2398 16.7617C36.0775 16.7617 35.9253 16.8405 35.8316 16.973C35.7378 17.1054 35.7142 17.2752 35.7683 17.4282L36.2398 17.2617ZM30.5806 17.2617L31.052 17.4282C31.1061 17.2752 31.0825 17.1054 30.9888 16.973C30.895 16.8405 30.7428 16.7617 30.5806 16.7617L30.5806 17.2617ZM25.4102 17.2617L24.9102 17.2617C24.9102 17.3943 24.9628 17.5215 25.0566 17.6153C25.1504 17.709 25.2775 17.7617 25.4102 17.7617L25.4102 17.2617ZM25.4102 12.2242L25.4903 11.7307C25.3456 11.7072 25.1978 11.7484 25.0862 11.8434C24.9745 11.9384 24.9102 12.0776 24.9102 12.2242L25.4102 12.2242ZM25.4102 6.30199L24.9102 6.30199C24.9102 6.4486 24.9745 6.58782 25.0862 6.68282C25.1978 6.77782 25.3456 6.81902 25.4903 6.79553L25.4102 6.30199ZM25.4102 1.26172L25.4102 0.761717C25.134 0.761717 24.9102 0.985575 24.9102 1.26172L25.4102 1.26172ZM41.9102 5.26172C41.9102 2.77644 39.8954 0.761719 37.4102 0.761718L37.4102 1.76172C39.3432 1.76172 40.9102 3.32872 40.9102 5.26172L41.9102 5.26172ZM41.9102 17.2617L41.9102 5.26172L40.9102 5.26172L40.9102 17.2617L41.9102 17.2617ZM36.2398 17.7617L41.4102 17.7617L41.4102 16.7617L36.2398 16.7617L36.2398 17.7617ZM36.9102 18.2609C36.9102 17.8531 36.8402 17.4605 36.7112 17.0952L35.7683 17.4282C35.86 17.688 35.9102 17.968 35.9102 18.2609L36.9102 18.2609ZM33.4102 21.7609C35.3432 21.7609 36.9102 20.1939 36.9102 18.2609L35.9102 18.2609C35.9102 19.6416 34.7909 20.7609 33.4102 20.7609L33.4102 21.7609ZM29.9102 18.2609C29.9102 20.1939 31.4772 21.7609 33.4102 21.7609L33.4102 20.7609C32.0294 20.7609 30.9102 19.6416 30.9102 18.2609L29.9102 18.2609ZM30.1091 17.0952C29.9801 17.4605 29.9102 17.8531 29.9102 18.2609L30.9102 18.2609C30.9102 17.968 30.9603 17.688 31.052 17.4282L30.1091 17.0952ZM25.4102 17.7617L30.5806 17.7617L30.5806 16.7617L25.4102 16.7617L25.4102 17.7617ZM24.9102 12.2242L24.9102 17.2617L25.9102 17.2617L25.9102 12.2242L24.9102 12.2242ZM25.8945 11.7631C25.7566 11.7631 25.6216 11.752 25.4903 11.7307L25.33 12.7177C25.5141 12.7476 25.7027 12.7631 25.8945 12.7631L25.8945 11.7631ZM28.3945 9.26309C28.3945 10.6438 27.2752 11.7631 25.8945 11.7631L25.8945 12.7631C27.8275 12.7631 29.3945 11.1961 29.3945 9.26309L28.3945 9.26309ZM25.8945 6.76309C27.2752 6.76309 28.3945 7.88238 28.3945 9.26309L29.3945 9.26309C29.3945 7.3301 27.8275 5.76309 25.8945 5.76309L25.8945 6.76309ZM25.4903 6.79553C25.6216 6.77422 25.7566 6.76309 25.8945 6.76309L25.8945 5.76309C25.7027 5.76309 25.5141 5.77857 25.33 5.80845L25.4903 6.79553ZM24.9102 1.26172L24.9102 6.30199L25.9102 6.30199L25.9102 1.26172L24.9102 1.26172ZM37.4102 0.761718L25.4102 0.761717L25.4102 1.76172L37.4102 1.76172L37.4102 0.761718Z" fill="#1E88E5"/>
<path d="M33.2188 36.5624L32.7188 36.5624L33.2188 36.5624ZM17.2188 40.5624L16.7188 40.5624C16.7187 40.8386 16.9426 41.0624 17.2187 41.0624L17.2188 40.5624ZM17.2188 35.021L17.3015 34.5279C17.1564 34.5035 17.008 34.5443 16.8958 34.6393C16.7835 34.7343 16.7188 34.8739 16.7188 35.021L17.2188 35.021ZM17.2188 29.1039L16.7188 29.1039C16.7188 29.251 16.7835 29.3906 16.8958 29.4856C17.008 29.5806 17.1564 29.6214 17.3015 29.597L17.2188 29.1039ZM17.2188 24.5624L17.2188 24.0624C16.9426 24.0624 16.7188 24.2863 16.7188 24.5624L17.2188 24.5624ZM22.0317 24.5624L22.5264 24.6347C22.5474 24.491 22.5049 24.3453 22.4099 24.2354C22.315 24.1256 22.1769 24.0624 22.0317 24.0624L22.0317 24.5624ZM27.9683 24.5624L27.9683 24.0624C27.8231 24.0624 27.685 24.1256 27.5901 24.2354C27.4951 24.3453 27.4526 24.491 27.4736 24.6347L27.9683 24.5624ZM33.2188 24.5624L33.7188 24.5624C33.7188 24.4298 33.6661 24.3027 33.5723 24.2089C33.4785 24.1151 33.3514 24.0624 33.2188 24.0624L33.2188 24.5624ZM29.2187 41.0624C31.704 41.0624 33.7188 39.0477 33.7188 36.5624L32.7188 36.5624C32.7188 38.4954 31.1517 40.0624 29.2188 40.0624L29.2187 41.0624ZM17.2187 41.0624L29.2187 41.0624L29.2188 40.0624L17.2188 40.0624L17.2187 41.0624ZM16.7188 35.021L16.7188 40.5624L17.7188 40.5624L17.7188 35.021L16.7188 35.021ZM17.7187 34.5624C17.5762 34.5624 17.4369 34.5506 17.3015 34.5279L17.136 35.5141C17.3259 35.5459 17.5206 35.5624 17.7187 35.5624L17.7187 34.5624ZM20.2187 32.0624C20.2187 33.4432 19.0995 34.5624 17.7187 34.5624L17.7187 35.5624C19.6517 35.5624 21.2187 33.9954 21.2187 32.0624L20.2187 32.0624ZM17.7188 29.5624C19.0995 29.5624 20.2187 30.6817 20.2187 32.0624L21.2187 32.0624C21.2187 30.1294 19.6517 28.5624 17.7188 28.5624L17.7188 29.5624ZM17.3015 29.597C17.4369 29.5743 17.5762 29.5624 17.7188 29.5624L17.7188 28.5624C17.5206 28.5624 17.3259 28.579 17.136 28.6108L17.3015 29.597ZM16.7188 24.5624L16.7188 29.1039L17.7188 29.1039L17.7188 24.5624L16.7188 24.5624ZM22.0317 24.0624L17.2188 24.0624L17.2188 25.0624L22.0317 25.0624L22.0317 24.0624ZM22.5 25C22.5 24.8756 22.509 24.7537 22.5264 24.6347L21.5369 24.4901C21.5126 24.6568 21.5 24.8271 21.5 25L22.5 25ZM25 27.5C23.6193 27.5 22.5 26.3807 22.5 25L21.5 25C21.5 26.933 23.067 28.5 25 28.5L25 27.5ZM27.5 25C27.5 26.3807 26.3807 27.5 25 27.5L25 28.5C26.933 28.5 28.5 26.933 28.5 25L27.5 25ZM27.4736 24.6347C27.491 24.7537 27.5 24.8756 27.5 25L28.5 25C28.5 24.8271 28.4874 24.6568 28.4631 24.4901L27.4736 24.6347ZM33.2188 24.0624L27.9683 24.0624L27.9683 25.0624L33.2188 25.0624L33.2188 24.0624ZM33.7188 36.5624L33.7188 24.5624L32.7188 24.5624L32.7188 36.5624L33.7188 36.5624Z" fill="#1E88E5"/>
</svg>
